<svg xmlns="http://www.w3.org/2000/svg" viewBox="0 0 512 512">
  <rect x="0" y="0" width="512" height="512" fill="#0f3f22"/>
  <circle cx="256" cy="256" r="210" fill="#145032"/>
  <circle cx="256" cy="256" r="170" fill="#0f3f22"/>
  <g fill="#fff">
    <path d="M156 348c-41 0-74-31-74-88 0-55 33-88 87-88 30 0 53 10 69 28l-27 25c-10-11-25-17-41-17-29 0-47 19-47 52s18 52 44 52c17 0 31-6 42-19l27 23c-16 21-41 32-80 32z"/>
    <path d="M342 176h42v74h42v34h-42v74h-42v-74h-84v-28l84-80z"/>
  </g>
</svg>
